<svg xmlns:inkscape="http://www.inkscape.org/namespaces/inkscape" xmlns:sodipodi="http://sodipodi.sourceforge.net/DTD/sodipodi-0.dtd" xmlns="http://www.w3.org/2000/svg" xmlns:svg="http://www.w3.org/2000/svg" version="1.1" id="svg1" inkscape:version="1.3.2 (091e20e, 2023-11-25, custom)" sodipodi:docname="logo.svg" viewBox="34.03 -0.4 132.56 163.13">
  <sodipodi:namedview id="namedview1" pagecolor="#ffffff" bordercolor="#000000" borderopacity="0.25" inkscape:showpageshadow="2" inkscape:pageopacity="0.0" inkscape:pagecheckerboard="0" inkscape:deskcolor="#d1d1d1" inkscape:document-units="mm" inkscape:zoom="1.4307864" inkscape:cx="374.61916" inkscape:cy="194.6482" inkscape:window-width="1920" inkscape:window-height="991" inkscape:window-x="-9" inkscape:window-y="-9" inkscape:window-maximized="1" inkscape:current-layer="layer1"/>
  <defs id="defs1">
    <rect x="129.99844" y="300.53403" width="329.88851" height="169.13776" id="rect206"/>
    <rect x="122.31036" y="252.3088" width="675.85211" height="138.38543" id="rect205"/>
    <rect x="132.79411" y="533.27317" width="229.94348" height="207.57815" id="rect20"/>
    <rect x="345.94595" y="469.49807" width="181.86873" height="57.328185" id="rect15"/>
    <rect x="130.47104" y="382.51737" width="559.44402" height="191.7529" id="rect13"/>
  </defs>
  <g inkscape:label="Layer 1" inkscape:groupmode="layer" id="layer1">
    <text xml:space="preserve" transform="scale(0.26458333)" id="text13" style="white-space:pre;shape-inside:url(#rect13);display:inline;fill:#ffffff;fill-opacity:0.247059"/>
    <text xml:space="preserve" transform="scale(0.26458333)" id="text20" style="font-style:normal;font-variant:normal;font-weight:normal;font-stretch:normal;font-size:93.3333px;font-family:'Ink Free';-inkscape-font-specification:'Ink Free';white-space:pre;shape-inside:url(#rect20);display:inline;fill:#ffd42a;fill-opacity:0.992198;stroke-width:21.12;stroke-dasharray:none"/>
    <path style="fill:#ff5959;fill-opacity:1;stroke-width:5.588;stroke-dasharray:none" d="m 34.025578,131.84911 c 0.739685,30.69699 0.739685,30.88191 0.739685,30.88191 z" id="path26"/>
    <g id="g208" transform="matrix(1.3808358,0,0,1.0565664,0.32983,-39.475007)">
      <path id="path15" style="fill:#bd0000;fill-opacity:0.247059;stroke-width:0.264583" inkscape:transform-center-x="-0.10594995" inkscape:transform-center-y="-1.0926392e-06" d="m 67.763822,89.079317 -0.438732,0.450102 -0.04548,-0.0078 c 0.03236,0.09507 0.07221,0.187685 0.120406,0.276986 0.05138,-0.08969 0.10641,-0.177516 0.166915,-0.262516 0.09489,-0.143639 0.155248,-0.29747 0.196887,-0.45682 z"/>
      <g id="g207" transform="matrix(0.99516544,0,0,1.0178087,-1.7607712,-2.1734169)">
        <g id="g199" transform="matrix(1.2593386,-0.19646567,0.19660541,1.2602344,-27.025739,-125.41828)" style="fill:#414351;fill-opacity:0.997396">
          <g id="g1" transform="matrix(0.55238829,0,0,0.58341456,30.675673,38.46688)" style="fill:#414351;fill-opacity:0.997396;stroke-width:1.00055;stroke-dasharray:none">
            <path id="path1" style="fill:#414351;fill-opacity:0.997396;stroke-width:1.00055;stroke-dasharray:none" d="M 51.409433,187.67913 A 12.931274,9.1725447 81.940555 0 0 39.592386,193.9 a 12.931274,9.1725447 81.940555 0 0 -0.500751,4.68259 12.931274,9.1725447 81.940555 0 0 2.21e-4,1.3e-4 19.30139,2.9671904 31.925571 0 0 7.645554,5.09639 19.30139,2.9671904 31.925571 0 0 8.68145,4.79728 12.931274,9.1725447 81.940555 0 0 1.638034,-3.69546 12.931274,9.1725447 81.940555 0 0 -5.647461,-17.1018 z m 4.008653,20.79823 a 12.931274,9.1725447 81.940555 0 1 -2.225558,2.38345 12.931274,9.1725447 81.940555 0 0 2.225558,-2.38345 z m -16.326364,-9.89218 a 12.931274,9.1725447 81.940555 0 0 0.07994,1.27288 12.931274,9.1725447 81.940555 0 1 -0.07994,-1.27288 z m 0.103472,1.47905 a 12.931274,9.1725447 81.940555 0 0 0.441864,2.49184 12.931274,9.1725447 81.940555 0 1 -0.441864,-2.49184 z m 13.997029,10.79675 a 30.371835,6.0046034 32.085678 0 1 -6.677865,-3.83733 30.371835,6.0046034 32.085678 0 1 -6.875881,-4.46126 12.931274,9.1725447 81.940555 0 0 5.601146,8.43928 12.931274,9.1725447 81.940555 0 0 7.9526,-0.14069 z"/>
            <path id="path2" style="fill:#414351;fill-opacity:0.997396;stroke-width:1.00055;stroke-dasharray:none" d="m 56.632967,203.01657 a 10.924144,7.9876153 61.338146 0 1 -0.0993,2.92436 18.632385,2.2611999 31.854985 0 1 6.567833,6.24145 18.632385,2.2611999 31.854985 0 1 -8.098444,-2.7225 18.632385,2.2611999 31.854985 0 1 -8.351913,-4.73745 18.632385,2.2611999 31.854985 0 1 -7.395771,-4.86154 18.632385,2.2611999 31.854985 0 1 -7.873956,-7.1854 18.632385,2.2611999 31.854985 0 1 8.36229,2.85813 10.924144,7.9876153 61.338146 0 1 1.173757,-2.12391 29.314837,4.5765824 31.932337 0 0 -18.087253,-6.0008 29.314837,4.5765824 31.932337 0 0 17.120954,15.65885 29.314837,4.5765824 31.932337 0 0 6.645418,4.27547 29.314837,4.5765824 31.932337 0 0 6.431172,3.76053 29.314837,4.5765824 31.932337 0 0 19.737225,6.8983 29.314837,4.5765824 31.932337 0 0 -16.132012,-14.98549 z"/>
          </g>
        </g>
        <ellipse style="fill:#0b0a0a;fill-opacity:0.192708;stroke-width:5.8726;stroke-dasharray:none;paint-order:stroke fill markers" id="path200" cx="68.759789" cy="65.373222" rx="0.91906887" ry="0.92460805" transform="rotate(-8.867069)"/>
        <ellipse style="fill:#f9f9f9;fill-opacity:0.618182;stroke-width:5.8726;stroke-dasharray:none;paint-order:stroke fill markers" id="ellipse201" cx="68.759789" cy="65.373222" rx="0.91906887" ry="0.92460805" transform="rotate(-8.867069)"/>
        <ellipse style="fill:#e6e6e6;fill-opacity:0.706493;stroke-width:5.8726;stroke-dasharray:none;paint-order:stroke fill markers" id="ellipse202" cx="65.083519" cy="62.5994" rx="0.91906887" ry="0.92460805" transform="rotate(-8.867069)"/>
        <ellipse style="fill:#f2f2f2;fill-opacity:0.688312;stroke-width:5.8726;stroke-dasharray:none;paint-order:stroke fill markers" id="ellipse203" cx="65.28775" cy="67.037514" rx="0.91906887" ry="0.92460805" transform="rotate(-8.867069)"/>
        <path sodipodi:type="star" style="fill:#0b0a0a;fill-opacity:0.192708;stroke-width:5.588;stroke-dasharray:none;paint-order:stroke fill markers" id="path203" inkscape:flatsided="false" sodipodi:sides="5" sodipodi:cx="48.449463" sodipodi:cy="115.57601" sodipodi:r1="1.408321" sodipodi:r2="0.70416045" sodipodi:arg1="0.40489179" sodipodi:arg2="1.0332103" inkscape:rounded="0" inkscape:randomized="0" d="m 49.743914,116.13078 -0.933876,0.0501 -0.48818,0.79769 -0.336205,-0.8727 -0.909506,-0.21778 0.72609,-0.58943 -0.07392,-0.93229 0.784954,0.50841 0.863817,-0.3584 -0.240962,0.90364 z" inkscape:transform-center-x="0.039432807" inkscape:transform-center-y="0.096425813" transform="matrix(1.0912549,-0.17024343,0.15414252,0.98804862,12.161183,-54.766008)"/>
        <path sodipodi:type="star" style="fill:#0b0a0a;fill-opacity:0.192708;stroke-width:5.588;stroke-dasharray:none;paint-order:stroke fill markers" id="path204" inkscape:flatsided="false" sodipodi:sides="5" sodipodi:cx="47.15501" sodipodi:cy="114.83632" sodipodi:r1="1.3075933" sodipodi:r2="0.65379661" sodipodi:arg1="0.78539816" sodipodi:arg2="1.4137167" inkscape:rounded="0" inkscape:randomized="0" d="m 48.079618,115.76093 -0.822331,-0.27886 -0.695912,0.51932 0.0111,-0.86825 -0.708957,-0.50137 0.82919,-0.25776 0.257752,-0.82919 0.50137,0.70896 0.868256,-0.0111 -0.519326,0.69592 z" inkscape:transform-center-x="-0.089050851" inkscape:transform-center-y="-0.082248027" transform="matrix(-1.5374081,0.23984647,0.20055568,1.2855555,119.61844,-111.18589)"/>
        <path sodipodi:type="star" style="fill:#0b0a0a;fill-opacity:0.192708;stroke-width:5.588;stroke-dasharray:none;paint-order:stroke fill markers" id="path205" inkscape:flatsided="false" sodipodi:sides="5" sodipodi:cx="53.997112" sodipodi:cy="110.95297" sodipodi:r1="4.2572155" sodipodi:r2="2.2240777" sodipodi:arg1="-0.60005027" sodipodi:arg2="0.028268232" inkscape:rounded="0" inkscape:randomized="0" d="m 57.510623,108.54899 -1.290322,2.46684 1.148868,2.53582 -2.744839,-0.46487 -2.056683,1.87624 -0.406082,-2.75415 -2.419967,-1.37623 2.493866,-1.23728 0.561061,-2.72681 1.947376,1.98947 z" inkscape:transform-center-x="0.16882952" inkscape:transform-center-y="0.0048212897" transform="matrix(0.67566276,-0.10540814,0.10836365,0.69460753,28.566162,-29.694239)"/>
      </g>
      <text xml:space="preserve" transform="matrix(0.26458333,0,0,0.26458333,2.2190594,0.55476485)" id="text205" style="font-style:normal;font-variant:normal;font-weight:normal;font-stretch:normal;font-size:46.6667px;font-family:'Ink Free';-inkscape-font-specification:'Ink Free';white-space:pre;shape-inside:url(#rect205);display:inline;fill:#414351;fill-opacity:0.987013;stroke-width:21.12;stroke-dasharray:none;paint-order:stroke fill markers"><tspan x="122.31055" y="295.422" id="tspan5"><tspan style="font-family:Algerian;-inkscape-font-specification:Algerian" id="tspan4">ASTRO SATVIK</tspan></tspan></text>
      <text xml:space="preserve" transform="matrix(0.26458333,0,0,0.26458333,2.7738242,0.73968646)" id="text206" style="font-style:normal;font-variant:normal;font-weight:normal;font-stretch:normal;font-size:16px;font-family:Algerian;-inkscape-font-specification:Algerian;white-space:pre;shape-inside:url(#rect206);display:inline;fill:#414351;fill-opacity:0.987013;stroke-width:21.12;stroke-dasharray:none;paint-order:stroke fill markers"><tspan x="129.99805" y="315.31493" id="tspan6">PERFECT PREDICTIONS FOR PERFECT LIFE</tspan></text>
    </g>
  </g>
</svg>