<?xml version="1.0" encoding="UTF-8" standalone="no"?>
<!-- Created with Inkscape (http://www.inkscape.org/) -->

<svg
   width="210mm"
   height="297mm"
   viewBox="0 0 210 297"
   version="1.1"
   id="svg1"
   inkscape:version="1.3.2 (091e20e, 2023-11-25, custom)"
   sodipodi:docname="short_logo.svg"
   xmlns:inkscape="http://www.inkscape.org/namespaces/inkscape"
   xmlns:sodipodi="http://sodipodi.sourceforge.net/DTD/sodipodi-0.dtd"
   xmlns:xlink="http://www.w3.org/1999/xlink"
   xmlns="http://www.w3.org/2000/svg"
   xmlns:svg="http://www.w3.org/2000/svg">
  <sodipodi:namedview
     id="namedview1"
     pagecolor="#c7e0ff"
     bordercolor="#000000"
     borderopacity="0.25"
     inkscape:showpageshadow="2"
     inkscape:pageopacity="0.0"
     inkscape:pagecheckerboard="0"
     inkscape:deskcolor="#d1d1d1"
     inkscape:document-units="mm"
     inkscape:zoom="1.4307864"
     inkscape:cx="440.66676"
     inkscape:cy="655.23408"
     inkscape:window-width="1920"
     inkscape:window-height="991"
     inkscape:window-x="-9"
     inkscape:window-y="-9"
     inkscape:window-maximized="1"
     inkscape:current-layer="layer1" />
  <defs
     id="defs1">
    <linearGradient
       id="linearGradient200"
       inkscape:collect="always">
      <stop
         style="stop-color:#000000;stop-opacity:1;"
         offset="0"
         id="stop201" />
      <stop
         style="stop-color:#000000;stop-opacity:0;"
         offset="1"
         id="stop202" />
    </linearGradient>
    <clipPath
       clipPathUnits="userSpaceOnUse"
       id="clipPath15">
      <rect
         style="fill:none;stroke:#000000;stroke-linecap:butt;stroke-linejoin:bevel;paint-order:stroke markers fill;stop-color:#000000"
         id="rect15-7"
         width="45.034248"
         height="38.955639"
         x="262.48285"
         y="121.00073" />
    </clipPath>
    <rect
       x="123.70819"
       y="353.65168"
       width="256.5023"
       height="13.279411"
       id="rect181" />
    <rect
       x="47.526312"
       y="384.404"
       width="205.48141"
       height="14.677243"
       id="rect180" />
    <rect
       x="100.64396"
       y="377.41483"
       width="90.16021"
       height="39.139316"
       id="rect179" />
    <rect
       x="219.45974"
       y="742.24917"
       width="27.956654"
       height="11.881578"
       id="rect148" />
    <rect
       x="171.93342"
       y="733.86217"
       width="75.482966"
       height="32.150152"
       id="rect147" />
    <rect
       x="134.19194"
       y="710.09902"
       width="66.397054"
       height="101.34287"
       id="rect146" />
    <rect
       x="91.558043"
       y="557.73525"
       width="72.687301"
       height="60.106806"
       id="rect20" />
    <rect
       x="70.590552"
       y="543.75692"
       width="42.633898"
       height="44.730647"
       id="rect19" />
    <rect
       x="74.78405"
       y="480.85445"
       width="70.590552"
       height="68.493803"
       id="rect18" />
    <rect
       x="345.94595"
       y="469.49807"
       width="181.86873"
       height="57.328185"
       id="rect15" />
    <rect
       x="130.47104"
       y="382.51737"
       width="559.44402"
       height="191.7529"
       id="rect13" />
    <radialGradient
       inkscape:collect="always"
       xlink:href="#linearGradient200"
       id="radialGradient202"
       cx="106.23746"
       cy="152.28296"
       fx="106.23746"
       fy="152.28296"
       r="76.223423"
       gradientTransform="matrix(1.3061519,0,0,1.4329723,-32.339873,-66.304147)"
       gradientUnits="userSpaceOnUse" />
  </defs>
  <g
     inkscape:label="Layer 1"
     inkscape:groupmode="layer"
     id="layer1">
    <text
       xml:space="preserve"
       transform="scale(0.26458333)"
       id="text13"
       style="white-space:pre;shape-inside:url(#rect13);display:inline;fill:#ffffff;fill-opacity:0.247059" />
    <text
       xml:space="preserve"
       transform="scale(0.26458333)"
       id="text19"
       style="font-size:42.6667px;white-space:pre;shape-inside:url(#rect19);display:inline;fill:#1a1a1a;fill-opacity:0.247059"><tspan
         x="70.589844"
         y="627.4144"
         id="tspan1">S</tspan></text>
    <g
       id="g148">
      <path
         id="path1"
         style="mix-blend-mode:darken;fill:#0b3956;fill-opacity:1;stroke-width:49.8153;stroke-dasharray:none"
         d="m 105.24703,136.9083 a 19.513534,13.707757 82.176971 0 0 -17.656388,9.38922 19.513534,13.707757 82.176971 0 0 -0.748195,7.06748 19.513534,13.707757 82.176971 0 0 3.3e-4,2.1e-4 28.92126,4.4656837 32.198506 0 0 11.42357,7.69202 28.92126,4.4656837 32.198506 0 0 12.971353,7.24058 19.513534,13.707757 82.176971 0 0 2.44746,-5.5776 19.513534,13.707757 82.176971 0 0 -8.43813,-25.81191 z m 5.98951,31.39097 a 19.513534,13.707757 82.176971 0 1 -3.32531,3.59736 19.513534,13.707757 82.176971 0 0 3.32531,-3.59736 z M 86.842577,153.36891 a 19.513534,13.707757 82.176971 0 0 0.119442,1.92117 19.513534,13.707757 82.176971 0 1 -0.119442,-1.92117 z m 0.154602,2.23234 a 19.513534,13.707757 82.176971 0 0 0.660209,3.76096 19.513534,13.707757 82.176971 0 1 -0.660209,-3.76096 z m 20.913601,16.29564 a 45.510439,9.0368174 32.368008 0 1 -9.977705,-5.79172 45.510439,9.0368174 32.368008 0 1 -10.273566,-6.73342 19.513534,13.707757 82.176971 0 0 8.368926,12.73748 19.513534,13.707757 82.176971 0 0 11.882345,-0.21234 z" />
      <path
         id="path2"
         style="fill:#ff3b38;fill-opacity:1;stroke-width:0.23163"
         d="m 113.05175,158.82136 a 16.450619,11.961716 62.127411 0 1 -0.14837,4.41377 27.918497,3.4031927 32.122746 0 1 9.8133,9.42028 27.918497,3.4031927 32.122746 0 1 -12.10026,-4.1091 27.918497,3.4031927 32.122746 0 1 -12.478969,-7.15028 27.918497,3.4031927 32.122746 0 1 -11.050357,-7.33758 27.918497,3.4031927 32.122746 0 1 -11.764835,-10.84499 27.918497,3.4031927 32.122746 0 1 12.494477,4.3138 16.450619,11.961716 62.127411 0 1 1.753764,-3.20564 43.925487,6.8878447 32.205711 0 0 -27.024986,-9.05706 43.925487,6.8878447 32.205711 0 0 25.581194,23.63407 43.925487,6.8878447 32.205711 0 0 9.929221,6.453 43.925487,6.8878447 32.205711 0 0 9.609111,5.67581 43.925487,6.8878447 32.205711 0 0 29.49029,10.41167 43.925487,6.8878447 32.205711 0 0 -24.10358,-22.61775 z" />
      <path
         sodipodi:type="star"
         style="fill:#bd0000;fill-opacity:0.89198;stroke-width:0.264583"
         id="path15"
         inkscape:flatsided="false"
         sodipodi:sides="5"
         sodipodi:cx="67.496391"
         sodipodi:cy="90.056831"
         sodipodi:r1="1.1095297"
         sodipodi:r2="0.55476487"
         sodipodi:arg1="0"
         sodipodi:arg2="0.62831853"
         inkscape:rounded="0"
         inkscape:randomized="0"
         d="m 68.605921,90.056831 -0.660715,0.326083 -0.105951,0.729143 -0.514295,-0.527613 -0.726197,0.124553 0.342863,-0.652166 -0.342863,-0.652165 0.726197,0.124553 0.514295,-0.527613 0.105951,0.729143 z"
         inkscape:transform-center-x="-0.10594995"
         inkscape:transform-center-y="-1.0926392e-06"
         transform="matrix(1.4941454,0,0,1.5093095,13.047008,5.2546859)" />
      <text
         xml:space="preserve"
         transform="matrix(0.49259854,0.22529291,-0.19676888,0.59944463,128.75787,-195.57072)"
         id="text18"
         style="font-style:normal;font-variant:normal;font-weight:normal;font-stretch:normal;font-size:42.6667px;font-family:'Bodoni MT';-inkscape-font-specification:'Bodoni MT, Normal';font-variant-ligatures:normal;font-variant-caps:normal;font-variant-numeric:normal;font-variant-east-asian:normal;white-space:pre;shape-inside:url(#rect18);display:inline;fill:#ff3c38;fill-opacity:0.988543"><tspan
           x="74.783203"
           y="516.86344"
           id="tspan2">A</tspan></text>
      <text
         xml:space="preserve"
         transform="matrix(0.4430461,0.26888604,-0.26775464,0.45018244,239.65491,-129.90117)"
         id="text20"
         style="font-size:42.6667px;white-space:pre;shape-inside:url(#rect20);display:inline;fill:#ff3c38;fill-opacity:0.986907"><tspan
           x="91.558594"
           y="596.6605"
           id="tspan4"><tspan
             style="font-family:'Bodoni MT';-inkscape-font-specification:'Bodoni MT, Normal'"
             id="tspan3">S</tspan></tspan></text>
      <path
         sodipodi:type="star"
         style="fill:#ff3b38;fill-opacity:0.986907;stroke-width:0.264583"
         id="path20"
         inkscape:flatsided="false"
         sodipodi:sides="5"
         sodipodi:cx="90.796516"
         sodipodi:cy="145.71825"
         sodipodi:r1="2.9817715"
         sodipodi:r2="1.4908857"
         sodipodi:arg1="1.6951513"
         sodipodi:arg2="2.3234699"
         inkscape:rounded="0"
         inkscape:randomized="0"
         d="m 90.426673,148.67699 -0.649315,-1.8706 -1.909064,-0.52558 1.578399,-1.19559 -0.09007,-1.97804 1.624819,1.13169 1.853395,-0.69691 -0.574205,1.89501 1.235535,1.54732 -1.979698,0.0395 z"
         inkscape:transform-center-x="-0.025843956"
         inkscape:transform-center-y="0.26004418"
         transform="matrix(0.6720952,1.347994,-1.3344506,0.67891631,251.74714,-85.727404)" />
      <path
         style="fill:#ffffff;fill-opacity:0.247059;stroke-width:0.217748;stroke-dasharray:none"
         id="path22"
         sodipodi:type="arc"
         sodipodi:cx="95.384338"
         sodipodi:cy="149.27232"
         sodipodi:rx="1.6577988"
         sodipodi:ry="2.2328317"
         sodipodi:start="0"
         sodipodi:end="0.077481528"
         sodipodi:arc-type="slice"
         d="m 97.042137,149.27232 a 1.6577988,2.2328317 0 0 1 -0.005,0.17283 l -1.652825,-0.17283 z" />
      <ellipse
         style="fill:#ffffff;fill-opacity:0.545008;stroke-width:0.217748;stroke-dasharray:none"
         id="path23"
         cx="108.78487"
         cy="145.22533"
         rx="1.5196488"
         ry="2.3723838" />
      <text
         xml:space="preserve"
         transform="matrix(0.35754489,0.24916434,-0.16976089,0.5805922,151.73703,-316.86406)"
         id="text146"
         style="font-style:normal;font-variant:normal;font-weight:normal;font-stretch:normal;font-size:10.6667px;font-family:'Bodoni MT';-inkscape-font-specification:'Bodoni MT, Normal';font-variant-ligatures:normal;font-variant-caps:normal;font-variant-numeric:normal;font-variant-east-asian:normal;white-space:pre;shape-inside:url(#rect146);display:inline;fill:#ff3c38;fill-opacity:0.988543;stroke-width:125.376;stroke-dasharray:none"><tspan
           x="134.19141"
           y="719.10211"
           id="tspan5">STRO</tspan></text>
      <text
         xml:space="preserve"
         transform="matrix(0.43445061,0.27954889,-0.3336267,0.39888812,303.43886,-176.66181)"
         id="text147"
         style="font-style:normal;font-variant:normal;font-weight:normal;font-stretch:normal;font-size:10.6667px;font-family:'Bodoni MT';-inkscape-font-specification:'Bodoni MT, Normal';font-variant-ligatures:normal;font-variant-caps:normal;font-variant-numeric:normal;font-variant-east-asian:normal;white-space:pre;shape-inside:url(#rect147);display:inline;fill:#ff3b38;fill-opacity:0.988543;stroke-width:125.376;stroke-dasharray:none"><tspan
           x="171.93359"
           y="742.86383"
           id="tspan6">ATVIK</tspan></text>
    </g>
    <text
       xml:space="preserve"
       transform="scale(0.26458333)"
       id="text148"
       style="font-style:normal;font-variant:normal;font-weight:normal;font-stretch:normal;font-size:10.6667px;font-family:'Bodoni MT';-inkscape-font-specification:'Bodoni MT, Normal';font-variant-ligatures:normal;font-variant-caps:normal;font-variant-numeric:normal;font-variant-east-asian:normal;white-space:pre;shape-inside:url(#rect148);display:inline;fill:#d4aa00;fill-opacity:0.988543;stroke-width:125.376;stroke-dasharray:none" />
    <text
       xml:space="preserve"
       transform="matrix(0.21427344,0.1552135,-0.1552135,0.21427344,110.12032,52.1177)"
       id="text179"
       style="font-style:normal;font-variant:normal;font-weight:normal;font-stretch:normal;font-size:10.6667px;font-family:'Bodoni MT';-inkscape-font-specification:'Bodoni MT, Normal';font-variant-ligatures:normal;font-variant-caps:normal;font-variant-numeric:normal;font-variant-east-asian:normal;white-space:pre;shape-inside:url(#rect180);display:inline;fill:#000080;fill-opacity:1;stroke-width:125.376;stroke-dasharray:none"><tspan
         x="47.525391"
         y="393.4068"
         id="tspan7">PERFECT PREDICTIONS</tspan></text>
    <text
       xml:space="preserve"
       transform="matrix(0.22354831,0.14152912,-0.14152912,0.22354831,130.1916,76.374417)"
       id="text180"
       style="font-style:normal;font-variant:normal;font-weight:normal;font-stretch:normal;font-size:10.6667px;font-family:'Bodoni MT';-inkscape-font-specification:'Bodoni MT, Normal';font-variant-ligatures:normal;font-variant-caps:normal;font-variant-numeric:normal;font-variant-east-asian:normal;white-space:pre;shape-inside:url(#rect181);display:inline;fill:#000080;fill-opacity:1;stroke-width:125.376;stroke-dasharray:none"><tspan
         x="123.70898"
         y="362.65485"
         id="tspan8">PERFECT</tspan></text>
    <text
       xml:space="preserve"
       style="font-style:normal;font-variant:normal;font-weight:normal;font-stretch:normal;font-size:2.82223px;font-family:'Bodoni MT';-inkscape-font-specification:'Bodoni MT, Normal';font-variant-ligatures:normal;font-variant-caps:normal;font-variant-numeric:normal;font-variant-east-asian:normal;fill:#000080;fill-opacity:1;stroke-width:33.1724;stroke-dasharray:none"
       x="194.52083"
       y="98.577316"
       id="text182"
       transform="rotate(30.067658)"><tspan
         sodipodi:role="line"
         id="tspan182"
         style="stroke-width:33.1724"
         x="194.52083"
         y="98.577316"> LIFE</tspan></text>
    <ellipse
       style="fill:#000080;fill-opacity:0.0310966;stroke:url(#radialGradient202);stroke-width:46.5852;stroke-dasharray:none"
       id="path187"
       cx="106.42239"
       cy="151.9131"
       rx="77.895264"
       ry="84.182602" />
  </g>
</svg>
